<svg id="Layer_1" data-name="Layer 1" xmlns="http://www.w3.org/2000/svg" xmlns:xlink="http://www.w3.org/1999/xlink" viewBox="0 0 1080 1080"><defs><style>.cls-1{fill:none;}.cls-2{clip-path:url(#clip-path);}.cls-3{fill:url(#linear-gradient);}.cls-4{fill:#fff;fill-rule:evenodd;}</style><clipPath id="clip-path"><circle class="cls-1" cx="540" cy="540" r="540"/></clipPath><linearGradient id="linear-gradient" x1="1080" y1="1080" x2="0" gradientUnits="userSpaceOnUse"><stop offset="0" stop-color="#2bb7da"/><stop offset="1" stop-color="#31d35c"/></linearGradient></defs><g class="cls-2"><rect class="cls-3" width="1080" height="1080"/></g><path class="cls-4" d="M306.16,221.36c-45.64,0-79.42,39.95-77.91,83.28,1.45,41.62-.43,95.54-14,139.5s-36.63,72-74.24,75.62v40.48c37.61,3.59,60.63,31.52,74.24,75.62s15.46,97.88,14,139.5c-1.51,43.33,32.27,83.28,77.92,83.28H773.9c45.65,0,79.42-39.95,77.9-83.28-1.45-41.62.44-95.54,14-139.5s36.58-72,74.19-75.62V519.76c-37.61-3.59-60.57-31.52-74.19-75.62s-15.46-97.88-14-139.5c1.52-43.32-32.25-83.28-77.9-83.28ZM682.37,613.65c0,59.66-44.5,95.84-118.35,95.84H438.31a13.55,13.55,0,0,1-13.56-13.56V384.07a13.55,13.55,0,0,1,13.56-13.56h125c61.58,0,102,33.35,102,84.57,0,35.94-27.18,68.13-61.82,73.76v1.88C650.62,535.89,682.37,568.54,682.37,613.65ZM550.31,413.49H478.63V514.74H539c46.67,0,72.41-18.79,72.41-52.39C611.41,430.88,589.28,413.49,550.31,413.49ZM478.63,554.92V666.5H553c48.59,0,74.33-19.5,74.33-56.15s-26.46-55.44-77.46-55.44H478.63Z"/></svg>