<svg id="Layer_1" data-name="Layer 1" xmlns="http://www.w3.org/2000/svg" xmlns:xlink="http://www.w3.org/1999/xlink" viewBox="0 0 1082.12 1093.03"><defs><style>.cls-1{fill:none;clip-rule:evenodd;}.cls-2{fill:#fff;}.cls-3{clip-path:url(#clip-path);}.cls-4{fill:url(#linear-gradient);}</style><clipPath id="clip-path" transform="translate(1.06 13.03)"><path class="cls-1" d="M540.44,0C243.26,0,3,242,3,541.42,3,780.75,157,983.34,370.49,1055c26.7,5.39,36.48-11.65,36.48-26,0-12.55-.88-55.58-.88-100.4-149.5,32.27-180.63-64.54-180.63-64.54-24-62.75-59.62-78.88-59.62-78.88-48.93-33.17,3.56-33.17,3.56-33.17,54.28,3.59,82.76,55.58,82.76,55.58,48,82.46,125.45,59.16,156.59,44.82,4.45-35,18.7-59.17,33.82-72.61C323.33,767.31,197.88,720.7,197.88,512.73c0-59.16,21.34-107.56,55.16-145.21-5.34-13.44-24-69,5.35-143.42,0,0,45.37-14.35,147.69,55.57a512.38,512.38,0,0,1,268.72,0c102.32-69.92,147.7-55.57,147.7-55.57,29.37,74.39,10.67,130,5.34,143.42C862.54,405.17,883,453.57,883,512.73c0,208-125.46,253.68-245.58,267.13,19.58,17,36.47,49.3,36.47,100.39,0,72.61-.88,130.88-.88,148.8,0,14.34,9.8,31.38,36.48,26C923.05,983.33,1077,780.75,1077,541.42,1077.86,242,836.74,0,540.44,0Z"/></clipPath><linearGradient id="linear-gradient" x1="1082.12" y1="1082.12" x2="0" gradientUnits="userSpaceOnUse"><stop offset="0" stop-color="#2bb7da"/><stop offset="1" stop-color="#31d35c"/></linearGradient></defs><ellipse class="cls-2" cx="541.04" cy="553.03" rx="536.88" ry="540"/><g class="cls-3"><rect class="cls-4" width="1082.12" height="1082.12"/></g></svg>