<svg id="Layer_1" data-name="Layer 1" xmlns="http://www.w3.org/2000/svg" viewBox="0 0 616 600"><defs><style>.cls-1{fill:#fff;fill-rule:evenodd;}</style></defs><path class="cls-1" d="M308-.4C138.1-.4.37,137.31.37,307.21.37,443.1,88.5,558.39,210.74,599.07c15.38,2.82,21-6.68,21-14.83,0-7.3-.26-26.65-.41-52.31-85.57,18.58-103.62-41.24-103.62-41.24-14-35.53-34.15-45-34.15-45C65.62,426.61,95.66,427,95.66,427c30.87,2.18,47.12,31.7,47.12,31.7,27.44,47,72,33.43,89.52,25.56,2.79-19.88,10.74-33.44,19.52-41.12-68.3-7.77-140.11-34.16-140.11-152,0-33.58,12-61,31.67-82.54-3.17-7.78-13.72-39,3-81.4,0,0,25.83-8.27,84.59,31.53a291.64,291.64,0,0,1,154,0c58.72-39.8,84.5-31.53,84.5-31.53,16.79,42.35,6.23,73.62,3.06,81.4,19.72,21.5,31.62,49,31.62,82.54,0,118.17-71.92,144.17-140.44,151.79,11,9.49,20.88,28.27,20.88,57,0,41.12-.37,74.3-.37,84.38,0,8.23,5.54,17.8,21.15,14.79,122.12-40.75,210.17-156,210.17-291.82C615.56,137.31,477.83-.4,308-.4Z"/></svg>