<svg id="Layer_1" data-name="Layer 1" xmlns="http://www.w3.org/2000/svg" xmlns:xlink="http://www.w3.org/1999/xlink" viewBox="0 0 1080 1080"><defs><style>.cls-1{fill:none;}.cls-2{clip-path:url(#clip-path);}.cls-3{fill:url(#linear-gradient);}.cls-4{fill:#fff;}</style><clipPath id="clip-path"><circle class="cls-1" cx="540" cy="540" r="540"/></clipPath><linearGradient id="linear-gradient" x1="1080" y1="1080" x2="0" gradientUnits="userSpaceOnUse"><stop offset="0" stop-color="#2bb7da"/><stop offset="1" stop-color="#31d35c"/></linearGradient></defs><g class="cls-2"><rect class="cls-3" width="1080" height="1080"/></g><path class="cls-4" d="M301.15,845l238.49,66.21,239.16-66.3,53.2-596H248Zm238.6-474.26H722.89l-1.75,19.62-3.33,37.06-1.47,16.43H436.57l6.69,74.87H709.69l-1.78,19.63L690.73,730.78l-1.1,12.35L540,784.6h0l-.34.09L389.9,743.13,379.66,628.34h73.39l5.21,58.31,81.42,22,.07,0h0l81.54-22,8.49-94.82H376.39l-18-201.47-1.75-19.62Z"/></svg>