<svg id="Layer_1" data-name="Layer 1" xmlns="http://www.w3.org/2000/svg" xmlns:xlink="http://www.w3.org/1999/xlink" viewBox="0 0 1080 1080"><defs><style>.cls-1{fill:none;}.cls-2{clip-path:url(#clip-path);}.cls-3{fill:url(#linear-gradient);}.cls-4{fill:#fff;fill-rule:evenodd;}</style><clipPath id="clip-path"><circle class="cls-1" cx="540" cy="540" r="540"/></clipPath><linearGradient id="linear-gradient" x1="1080" y1="1080" x2="0" gradientUnits="userSpaceOnUse"><stop offset="0" stop-color="#2bb7da"/><stop offset="1" stop-color="#31d35c"/></linearGradient></defs><g class="cls-2"><rect class="cls-3" width="1080" height="1080"/></g><g id="Page-1"><g id="Dribbble-Light-Preview"><g id="icons"><path id="javascript-_155_" data-name="javascript-[#155]" class="cls-4" d="M695,785.37c-50.77,0-83.6-24.21-99.6-55.86h0L640,703.72c11.73,19.15,26.94,33.2,53.92,33.2,22.64,0,37.1-11.32,37.1-26.95,0-23.5-31.37-32.71-53.51-42.19C638,651,611.82,629.89,611.82,585.34c0-41,31.25-72.25,80.11-72.25,34.75,0,59.77,12.1,77.73,43.73l-42.58,27.36c-9.37-16.8-19.52-23.43-35.15-23.43-16,0-26.19,10.15-26.19,23.43,0,16.41,10.16,23,33.61,33.2,49.15,21.06,86.34,37.63,86.34,91.81,0,49.23-38.67,76.18-90.65,76.18ZM569.1,702.93c0,56.66-34.89,86.61-83.34,86.61-43.77,0-70-16.74-82.88-45.84h-.76l44.5-31.1c8.58,15.21,16.32,26,35.06,26,18,0,29.22-9.1,29.22-36.43V510.9h58.2ZM249,831H831V249H249Z"/></g></g></g></svg>