<svg id="Layer_1" data-name="Layer 1" xmlns="http://www.w3.org/2000/svg" xmlns:xlink="http://www.w3.org/1999/xlink" viewBox="0 0 1080 1080"><defs><style>.cls-1{fill:none;}.cls-2{clip-path:url(#clip-path);}.cls-3{fill:url(#linear-gradient);}</style><clipPath id="clip-path"><path class="cls-1" d="M993.21,8H86.52C43.23,8,8,42.35,8,84.64V995.19c0,42.4,35.25,76.81,78.54,76.81H993.28c43.39,0,78.74-34.41,78.74-76.81V84.64C1072,42.35,1036.67,8,993.21,8ZM323.87,914.62H165.76V406.88H323.87ZM244.73,337.15a91.49,91.49,0,1,1-.13-183h.1a91.49,91.49,0,0,1,0,183ZM915,914.66H757.26v-247c0-58.86-1.06-134.67-82-134.67-82.13,0-94.77,64.18-94.77,130.34V914.52H422.82V406.88h-.23l.23-.1v.1H574v69.39H576c21.09-39.9,72.56-82,149.63-82,159.81,0,189.3,105.17,189.3,241.87Z"/></clipPath><linearGradient id="linear-gradient" x1="1080" y1="1080" x2="0" gradientUnits="userSpaceOnUse"><stop offset="0" stop-color="#2bb7da"/><stop offset="1" stop-color="#31d35c"/></linearGradient></defs><g class="cls-2"><rect class="cls-3" width="1080" height="1080"/></g></svg>