<svg id="Layer_1" data-name="Layer 1" xmlns="http://www.w3.org/2000/svg" xmlns:xlink="http://www.w3.org/1999/xlink" viewBox="0 0 1096.21 1096.21"><defs><style>.cls-1{fill:none;}.cls-2{fill:#fff;}.cls-3{clip-path:url(#clip-path);}.cls-4{fill:url(#linear-gradient);}</style><clipPath id="clip-path" transform="translate(8.1 8.1)"><path class="cls-1" d="M1000,0H79.72C35.78,0,0,34.88,0,77.81V1002c0,43,35.78,78,79.72,78h920.36c44,0,79.92-34.93,79.92-78V77.81C1080,34.88,1044.12,0,1000,0ZM320.63,920.24H160.14V404.88H320.63ZM240.3,334.11a92.87,92.87,0,1,1-.14-185.73h.11a92.87,92.87,0,0,1,0,185.73ZM920.6,920.28H760.52V669.58c0-59.73-1.08-136.68-83.22-136.68-83.37,0-96.19,65.13-96.19,132.3V920.14h-160V404.88h-.24l.24-.1v.1H574.46v70.44h2.12c21.4-40.5,73.65-83.23,151.88-83.23,162.2,0,192.14,106.75,192.14,245.5Z"/></clipPath><linearGradient id="linear-gradient" x1="1096.21" y1="1096.21" x2="0" gradientUnits="userSpaceOnUse"><stop offset="0" stop-color="#2bb7da"/><stop offset="1" stop-color="#31d35c"/></linearGradient></defs><rect class="cls-2" x="77.64" y="46.18" width="958.18" height="994.72"/><path d="M1027.22,38.57v993.72H70V38.57h957.18m1-1H69v995.72h959.18V37.57Z" transform="translate(8.1 8.1)"/><g class="cls-3"><rect class="cls-4" width="1096.21" height="1096.21"/></g></svg>