<svg id="Layer_1" data-name="Layer 1" xmlns="http://www.w3.org/2000/svg" xmlns:xlink="http://www.w3.org/1999/xlink" viewBox="0 0 1080 1080"><defs><style>.cls-1{fill:none;}.cls-2{clip-path:url(#clip-path);}.cls-3{fill:url(#linear-gradient);}.cls-4{fill:#fff;}</style><clipPath id="clip-path"><circle class="cls-1" cx="540" cy="540" r="540"/></clipPath><linearGradient id="linear-gradient" x1="1080" y1="1080" x2="0" gradientUnits="userSpaceOnUse"><stop offset="0" stop-color="#2bb7da"/><stop offset="1" stop-color="#31d35c"/></linearGradient></defs><g class="cls-2"><rect class="cls-3" width="1080" height="1080"/></g><path class="cls-4" d="M497.81,695.25c13.75.63,27.8,1.08,42,1.08s28.57-.3,42.5-1.08a604,604,0,0,1-42.23,49.1l.2-.2c-14.47-15-28.37-30.95-41.47-47.55Zm-142.45-20c27.08,6.88,60.1,12.73,93.8,16.33l3.28.27a742.46,742.46,0,0,0,63.85,76.7l-.28-.3a225.28,225.28,0,0,1-127,71.5l-1.38.2h-.3a36.72,36.72,0,0,1-17.17-4.22l.2.1c-20.8-11.88-29.83-57.3-22.8-115.68,1.67-14.37,4.42-29.5,7.8-44.92Zm369.58-.32a388.75,388.75,0,0,1,7.7,42.3l.22,2.15c7.18,58.35-1.67,103.72-22.3,115.85a33,33,0,0,1-15.95,4c-.57,0-1.15,0-1.72,0H693a226.91,226.91,0,0,1-128.22-71l-.18-.2a721.89,721.89,0,0,0,61.65-74.12l1.45-2.1a714.66,714.66,0,0,0,102.2-17.93l-4.92,1Zm-340.35-93.3c6.25,12.25,12.8,24.45,20,36.7s14.52,24.08,22,35.7c-21.7-3.18-42.65-7.18-62.67-12,5.62-19.68,12.67-40.05,20.62-60.4Zm310.7-.63c8.27,20.53,15.3,41,21.12,60.85-20,4.9-41.12,9-63,12.18,7.5-11.73,15-23.8,22-36.18,7-12.17,13.6-24.62,19.88-36.87ZM330.46,447.28a716.25,716.25,0,0,0,36.23,97.65l-1.88-4.55c-11.65,25.12-23.17,55.85-32.62,87.47l-1.3,5.13a430.19,430.19,0,0,1-45.68-16.73l2.88,1.1c-54.1-23-89.1-53.3-89.1-77.3s35-54.42,89.1-77.35c13.12-5.62,27.5-10.7,42.35-15.42Zm418.48-.13c15.12,4.68,29.5,9.9,42.95,15.55C846,485.83,881,516.05,881,540.05s-35.15,54.35-89.25,77.33c-13.13,5.62-27.5,10.67-42.33,15.4A736.22,736.22,0,0,0,713.14,535l1.9,4.7a671.74,671.74,0,0,0,32.57-87.45l1.33-5.15Zm-95.7-21.07c21.72,3.22,42.65,7.17,62.67,12.1-5.62,19.75-12.65,40.05-20.62,60.4-6.25-12.18-12.8-24.45-20-36.68-7-12.25-14.53-24.17-22-35.8Zm-226.8,0c-7.5,11.77-15,23.82-22,36.25-7,12.17-13.6,24.42-19.85,36.67-8.28-20.5-15.3-40.92-21.13-60.82,20-4.68,41.08-8.85,63-12.05ZM540,418.13c23.12,0,46.15,1.05,68.8,2.9q19,27.27,37,58.1,17.41,30,31.8,60.8c-9.63,20.47-20.18,40.92-31.65,60.92C634,621.48,621.74,641.1,609,659.28c-22.75,2-45.8,3.05-69,3.05s-46.15-1.1-68.8-2.9c-12.67-18.18-25.05-37.63-37-58.1q-17.41-30-31.8-60.8c9.48-20.53,20.18-41,31.65-61,11.88-20.63,24.15-40.18,36.88-58.35q34.13-3,69.05-3.05Zm-.48-82A625.56,625.56,0,0,1,581,383.63l1,1.32c-13.75-.62-27.8-1.05-42-1.05s-28.57.3-42.5,1.05a594,594,0,0,1,42.23-49.1l-.2.2ZM387,240.8a227.27,227.27,0,0,1,128.22,71l.18.2a719.64,719.64,0,0,0-61.65,74.2l-1.45,2.1a710,710,0,0,0-102.15,17.85l4.9-1.05c-3.5-15.3-6.1-30.13-7.93-44.35-7.17-58.35,1.68-103.73,22.3-115.8a44.63,44.63,0,0,1,17.53-4.13H387Zm305.25-.62v.2c.32,0,.7,0,1.1,0a35.49,35.49,0,0,1,16.55,4.08l-.2-.1c20.8,11.92,29.82,57.32,22.8,115.72-1.68,14.38-4.43,29.53-7.8,45-27.13-6.95-60.15-12.83-93.85-16.4l-3.2-.28a748.27,748.27,0,0,0-63.88-76.75l.3.3a225.89,225.89,0,0,1,126.85-71.47l1.4-.23Zm.15-34.05a256,256,0,0,0-152.5,81.7l-.2.22a255.54,255.54,0,0,0-151.28-81.12l-1.4-.18h-1.12a68.34,68.34,0,0,0-33.78,8.88l.35-.18c-42.95,24.78-52.57,102-30.4,198.85C227,443.68,165.11,490.63,165.11,540.1c0,49.68,62.18,96.75,157.55,125.9-22,97.25-12.17,174.58,30.88,199.33a66.21,66.21,0,0,0,32.87,8.59c.55,0,1.1,0,1.63,0H388a256,256,0,0,0,152.5-81.75l.2-.23a255.42,255.42,0,0,0,151.28,81.15l1.4.18h1.3a68.41,68.41,0,0,0,33.6-8.78l-.35.18c42.92-24.75,52.57-101.95,30.4-198.85,94.75-29.13,156.6-76.18,156.6-125.73s-62.18-96.75-157.55-126c22-97.15,12.17-174.55-30.88-199.32a66.82,66.82,0,0,0-33.2-8.7h-.92Zm-82.73,334a69.82,69.82,0,1,1-20.45-49.4h0a69.6,69.6,0,0,1,20.45,49.4Z"/></svg>