<svg id="Layer_1" data-name="Layer 1" xmlns="http://www.w3.org/2000/svg" xmlns:xlink="http://www.w3.org/1999/xlink" viewBox="0 0 932 932"><defs><style>.cls-1{fill:#31d35c;}.cls-2{fill:none;}.cls-3{fill:#2bb7da;}.cls-4{clip-path:url(#clip-path);}.cls-5{clip-path:url(#clip-path-2);}.cls-6{fill:url(#linear-gradient);}.cls-7{clip-path:url(#clip-path-3);}</style><clipPath id="clip-path" transform="translate(-494 -74)"><path class="cls-1" d="M524.43,427a447.64,447.64,0,0,0-12.63,75q-1.55,18.54-1.55,37.5c0,.33,0,.67,0,1q0,18.43,1.54,36.5a447.64,447.64,0,0,0,12.63,75C561,794.1,665.24,909,800.75,960.41V879A376,376,0,0,1,602.42,652a372.07,372.07,0,0,1-15.31-75H800.75V502H587.11a372.07,372.07,0,0,1,15.31-75A376,376,0,0,1,800.75,200V118.59C665.24,170,561,284.9,524.43,427Z"/></clipPath><clipPath id="clip-path-2" transform="translate(-494 -74)"><path class="cls-2" d="M990.44,90.5H930.06Q907.59,92,885.75,95.64a447.15,447.15,0,0,0-75,19.29V577h225V906.9c-1.6.33-3.21.64-4.82,1a378.57,378.57,0,0,1-145.18-.76V652h-75V964.07a447.15,447.15,0,0,0,75,19.29,454.94,454.94,0,0,0,150-.17q12.42-2.1,24.61-4.87,9.72-2.21,19.29-4.84,15.52-4.26,30.6-9.59V502H885.75V171.91a378.52,378.52,0,0,1,150,.19V427h74.5V115.11A448.35,448.35,0,0,0,990.44,90.5Z"/></clipPath><linearGradient id="linear-gradient" x1="932" y1="932" x2="0" gradientUnits="userSpaceOnUse"><stop offset="0" stop-color="#2bb7da"/><stop offset="1" stop-color="#31d35c"/></linearGradient><clipPath id="clip-path-3" transform="translate(-494 -74)"><path class="cls-3" d="M1408.7,502h-56.84l43.3-75,.62-1.08a446.07,446.07,0,0,0-34.36-90.49A452,452,0,0,0,1195.75,156a447.11,447.11,0,0,0-75-37V960a447.88,447.88,0,0,0,75-37c97.87-60.22,170.94-156.85,200.32-271a447.64,447.64,0,0,0,12.63-75q.69-8.13,1-16.34V518.34Q1409.39,510.14,1408.7,502Zm-213-254.34A375.58,375.58,0,0,1,1314.61,416.5l-6.06,10.5-43.3,75h-69.5ZM1318.08,652a375.51,375.51,0,0,1-122.33,179.35V577h137.64A372.07,372.07,0,0,1,1318.08,652Z"/></clipPath></defs><path class="cls-1" d="M524.43,427a447.64,447.64,0,0,0-12.63,75q-1.55,18.54-1.55,37.5c0,.33,0,.67,0,1q0,18.43,1.54,36.5a447.64,447.64,0,0,0,12.63,75C561,794.1,665.24,909,800.75,960.41V879A376,376,0,0,1,602.42,652a372.07,372.07,0,0,1-15.31-75H800.75V502H587.11a372.07,372.07,0,0,1,15.31-75A376,376,0,0,1,800.75,200V118.59C665.24,170,561,284.9,524.43,427Z" transform="translate(-494 -74)"/><g class="cls-4"><rect class="cls-1" width="932" height="932"/></g><g class="cls-5"><rect class="cls-6" width="932" height="932"/></g><path class="cls-3" d="M1408.7,502h-56.84l43.3-75,.62-1.08a446.07,446.07,0,0,0-34.36-90.49A452,452,0,0,0,1195.75,156a447.11,447.11,0,0,0-75-37V960a447.88,447.88,0,0,0,75-37c97.87-60.22,170.94-156.85,200.32-271a447.64,447.64,0,0,0,12.63-75q.69-8.13,1-16.34V518.34Q1409.39,510.14,1408.7,502Zm-213-254.34A375.58,375.58,0,0,1,1314.61,416.5l-6.06,10.5-43.3,75h-69.5ZM1318.08,652a375.51,375.51,0,0,1-122.33,179.35V577h137.64A372.07,372.07,0,0,1,1318.08,652Z" transform="translate(-494 -74)"/><g class="cls-7"><rect class="cls-3" width="932" height="932"/></g></svg>